<svg xmlns="http://www.w3.org/2000/svg" version="1.1" xmlns:xlink="http://www.w3.org/1999/xlink" xmlns:svgjs="http://svgjs.dev/svgjs" viewBox="0 0 6.58443603515625 7.0593134025585424"><g transform="matrix(0.8571428571428572,0,0,0.8571428571428572,0.9406337193080354,5.261902728436057)"><g transform="matrix(1,0,0,1,0,0)" clip-path="url(#SvgjsClipPath14457)"><g clip-path="url(#SvgjsClipPath144552584c4b2-2983-4d59-bfb6-57eed0811155)"><path d=" M 2.7169095457269545 -1.487813624049581 C 2.643531197039716 -1.40590290923592 2.5701528483524774 -1.3253883997884053 2.502514455059389 -1.2395993367354659 C 2.4824628584249657 -1.2161939538816342 2.4842097665179805 -1.1811957099899808 2.506492410864102 -1.1599034053925816 C 2.528775055210212 -1.1386111007951825 2.563816526476363 -1.1384560044102967 2.586286777027902 -1.1595502290766606 C 2.664784545390993 -1.2361863902848969 2.7366115547825203 -1.3179419711689828 2.8096796356106095 -1.3998526859826401 C 2.864907314537994 -1.4608203203041699 2.771826956795201 -1.5497120619485378 2.7169095457269545 -1.487813624049581 Z" fill="#2196f3" transform="matrix(1,0,0,1,0,0)" fill-rule="evenodd"></path></g><g clip-path="url(#SvgjsClipPath144552584c4b2-2983-4d59-bfb6-57eed0811155)"><path d=" M 2.8428782965388613 -1.3032042478597061 C 2.676262515476262 -1.126990297064145 2.5266691513072757 -0.9354276835033062 2.396092579373457 -0.7310703156006655 C 2.3628939184451943 -0.6701026812791415 2.4406160171604183 -0.6224765649007455 2.48917293711625 -0.6632767883780026 C 2.6575096103146376 -0.8296194042079055 2.8098480895076494 -1.0114075655360861 2.9441807525489523 -1.2062455418776343 C 2.999098163617188 -1.2765212119734386 2.9001227165506864 -1.3727042483076577 2.8428782965388613 -1.3032042478597061 Z" fill="#2196f3" transform="matrix(1,0,0,1,0,0)" fill-rule="evenodd"></path></g><g clip-path="url(#SvgjsClipPath144552584c4b2-2983-4d59-bfb6-57eed0811155)"><path d=" M 2.932700841760662 -0.981921879717496 C 2.741654340043429 -0.8123859863189979 2.5692071204667832 -0.6229852704872112 2.418276731302159 -0.4169241082187405 C 2.3773213738953274 -0.35114732208050103 2.4685401244832708 -0.30057366104025185 2.519113785523521 -0.34261495595407965 C 2.6108291895196114 -0.4274307893040179 2.6962734880724697 -0.51878567647036 2.7747745014570664 -0.6159609398587529 C 2.85823655556643 -0.7090412976015408 2.9430948150419365 -0.7997946464007661 3.0290390120244584 -0.8905479951999888 C 3.0535911580002564 -0.9172462579597465 3.0521749237514717 -0.9587067229688166 3.02585817816621 -0.9836673721632136 C 2.999541432580948 -1.0086280213576106 2.9580640665123763 -1.007850858420861 2.9327008417606732 -0.981921879717496 Z" fill="#2196f3" transform="matrix(1,0,0,1,0,0)" fill-rule="evenodd"></path></g><g clip-path="url(#SvgjsClipPath144552584c4b2-2983-4d59-bfb6-57eed0811155)"><path d=" M 2.941543475746225 -0.6843750027997029 C 2.869478633787269 -0.5975703392210345 2.7924554000244663 -0.5150047476824202 2.710859322473666 -0.4370915190630207 C 2.668662893630272 -0.38884486696633225 2.712565795698958 -0.29095535740683065 2.7820657961469064 -0.32089620581409584 C 2.907084589952779 -0.38562134718286867 3.0102946642336468 -0.4857022085477425 3.0788370034168415 -0.6086696451689022 C 3.134840351992093 -0.6939933064331232 2.998012226110183 -0.7662857176133606 2.941543475746225 -0.6843750027997029 Z" fill="#2196f3" transform="matrix(1,0,0,1,0,0)" fill-rule="evenodd"></path></g><g clip-path="url(#SvgjsClipPath144552584c4b2-2983-4d59-bfb6-57eed0811155)"><path d=" M 1.9640445855173345 -4.875473244098539 C 1.7152122862201717 -4.626914723113389 1.503736408060694 -4.343588256253808 1.3362175725421854 -4.03433707796283 C 1.3107756080924915 -3.976627256162298 1.381671813906583 -3.9145736843337695 1.4292979302849784 -3.9657678810923063 C 1.5388109804153576 -4.09850085455229 1.6408902276165698 -4.237196046842939 1.7350669054700563 -4.381216544484306 C 1.8385412364941234 -4.519751143591499 1.9469798532644853 -4.653631724811548 2.058831416485408 -4.784564761369745 C 2.1145244972015105 -4.849100476071415 2.0203582019517237 -4.939698690941067 1.9640445855173345 -4.875473244098539 Z" fill="#2196f3" transform="matrix(1,0,0,1,0,0)" fill-rule="evenodd"></path></g><g clip-path="url(#SvgjsClipPath144552584c4b2-2983-4d59-bfb6-57eed0811155)"><path d=" M 2.3493972665724856 -4.940164092729779 C 1.8341974864661266 -4.286584847445801 1.2648559649393762 -3.6334710039505325 0.8283090871256771 -2.924664079739162 C 0.7844061850569913 -2.8537678739250705 0.892844801827342 -2.7715468912522696 0.9466762753885951 -2.837323677390508 C 1.4741316359310779 -3.4815948869002087 1.9240200316879277 -4.1990893111675724 2.430997713527 -4.862286860084975 C 2.4742800798774103 -4.919065878308082 2.3946963740073253 -4.997253378812027 2.3493972665724856 -4.940164092729779 Z" fill="#2196f3" transform="matrix(1,0,0,1,0,0)" fill-rule="evenodd"></path></g><g clip-path="url(#SvgjsClipPath144552584c4b2-2983-4d59-bfb6-57eed0811155)"><path d=" M 2.683866018728261 -4.771533511285755 C 2.40638313003503 -4.388869818343159 2.1305550032572116 -4.004551363485136 1.8563816383948284 -3.6185781467116875 C 1.5618920322755936 -3.2482239186640225 1.294127033058172 -2.8573855199998963 1.055114892158957 -2.449023451673494 C 1.018348150850542 -2.3768861744228267 1.1159273925509008 -2.2976127364118795 1.1728615447035882 -2.3623035850431218 C 1.455758655729659 -2.722417096413563 1.7158571065049526 -3.0998707246800956 1.95163387115162 -3.492454261970195 C 2.2280825336477137 -3.901283877700492 2.507323606876093 -4.308303597585785 2.789357090836757 -4.713513421626079 C 2.833259992905443 -4.778204270257321 2.7283894565152336 -4.833587083114283 2.683866018728261 -4.771533511285755 Z" fill="#2196f3" transform="matrix(1,0,0,1,0,0)" fill-rule="evenodd"></path></g><g clip-path="url(#SvgjsClipPath144552584c4b2-2983-4d59-bfb6-57eed0811155)"><path d=" M 2.8757666896079863 -4.445752259185976 C 2.3839921328669025 -3.7144509151867657 1.8816684689149534 -2.9895100622999755 1.3971852068637205 -2.2533995664840534 C 1.3324943582324869 -2.1551997890654047 1.492127171761374 -2.0672388509984643 1.55650775253347 -2.1651283605579694 C 2.041921818162139 -2.8995323831486086 2.5093403479605225 -3.645261182597952 2.987307984969771 -4.3835435534278755 C 3.0321416906158816 -4.453664089594114 2.9212209309723836 -4.5133906524790754 2.8757666896079863 -4.445752259185976 Z" fill="#2196f3" transform="matrix(1,0,0,1,0,0)" fill-rule="evenodd"></path></g><g clip-path="url(#SvgjsClipPath144552584c4b2-2983-4d59-bfb6-57eed0811155)"><path d=" M 3.2935423619435555 -4.433031276961129 C 2.7842376711609047 -3.6280413164155365 2.2252901229154283 -2.8382544809679384 1.7600434681310433 -2.0072020202543652 C 1.7082287356542198 -1.9150524660890023 1.843195254381269 -1.845552465641048 1.90106021011137 -1.929635055468704 C 2.4406160171604294 -2.7136819355221657 2.901984323705547 -3.562729932066013 3.398412898333765 -4.374856053371885 C 3.439213121811028 -4.440943107369267 3.3348079872095364 -4.4975669916628 3.2935423619435555 -4.433031276961129 Z" fill="#2196f3" transform="matrix(1,0,0,1,0,0)" fill-rule="evenodd"></path></g><g clip-path="url(#SvgjsClipPath144552584c4b2-2983-4d59-bfb6-57eed0811155)"><path d=" M 3.7068191503215595 -4.38369868735745 C 3.1568693699912145 -3.5427176551513124 2.5451762856915012 -2.68715403356547 2.1056818632159366 -1.7821026884463795 C 2.0865785090440188 -1.7462923660166965 2.099742360108316 -1.7017786686673477 2.1352498645072355 -1.682118188904706 C 2.170757368906144 -1.6624577091420671 2.215471289698196 -1.6749245256544807 2.2356840961967137 -1.7101205451252866 C 2.801457537343323 -2.5515669791201367 3.27027227250786 -3.4668571635909373 3.8180501778241953 -4.322731053035921 C 3.8613325441745943 -4.391765651695157 3.751032320249394 -4.451802482439259 3.7068191503215595 -4.38369868735745 Z" fill="#2196f3" transform="matrix(1,0,0,1,0,0)" fill-rule="evenodd"></path></g><g clip-path="url(#SvgjsClipPath144552584c4b2-2983-4d59-bfb6-57eed0811155)"><path d=" M 4.060214241885033 -4.2073114094348565 C 3.5386539706662474 -3.357953145031869 2.9714843241534954 -2.5225569342902987 2.4914999460598173 -1.649308044733326 C 2.441701954667423 -1.5582444280749597 2.575117134098761 -1.4881238919087214 2.6311204826740124 -1.5717410799476652 C 3.18013945942691 -2.4027935406612357 3.6550044178447356 -3.2927968946119117 4.1636885729091 -4.149601587634325 C 4.202316921372365 -4.215843775561279 4.099773393925721 -4.271691990206953 4.060214241885033 -4.2073114094348565 Z" fill="#2196f3" transform="matrix(1,0,0,1,0,0)" fill-rule="evenodd"></path></g><g clip-path="url(#SvgjsClipPath144552584c4b2-2983-4d59-bfb6-57eed0811155)"><path d=" M 4.363811342056112 -4.026890649343407 C 4.129662531023126 -3.630988861077391 3.8957722765394305 -3.2349836501916642 3.6621405786050176 -2.8388750166862224 C 3.4260536540392375 -2.4885945347625413 3.217844174066713 -2.120311697740903 3.0394329853057327 -1.7374241167298439 C 3.0139910208560385 -1.6724230002394527 3.115914012584394 -1.6190569284669172 3.1581104414277883 -1.6719575984507373 C 3.3995071345895087 -2.0189004306553944 3.6131683187237407 -2.3843393823974797 3.7971070973320673 -2.764876132280694 C 4.0220512952104865 -3.1660524741521407 4.246840359159325 -3.567177104713722 4.471474289178596 -3.9682500239654477 C 4.481735142365675 -3.9970204040390374 4.469532631971868 -4.028979248653915 4.4427081253314515 -4.043589714806766 C 4.415883618691034 -4.058200180959616 4.382415867374911 -4.0511164932991335 4.363811342056112 -4.026890649343407 Z" fill="#2196f3" transform="matrix(1,0,0,1,0,0)" fill-rule="evenodd"></path></g><g clip-path="url(#SvgjsClipPath144552584c4b2-2983-4d59-bfb6-57eed0811155)"><path d=" M 4.527632771683427 -3.54597546767231 C 4.3492287526763995 -3.2318809716002384 4.174961638457942 -2.915562889204312 4.004831429028068 -2.5970212204845313 C 3.83481335216582 -2.3190874183157346 3.6916506844755173 -2.0255935603875113 3.5772823191295005 -1.7205145184065578 C 3.5524608903980934 -1.6376730000154724 3.6655535250555897 -1.6071116158899263 3.708525623546851 -1.6686997859297397 C 3.885093670688739 -1.9598917890078145 4.04062383398184 -2.2633311375926537 4.173927412260805 -2.576698675710673 C 4.326786044198416 -2.880244064571902 4.483678158304885 -3.1818761349684133 4.644603754580203 -3.4815948869002087 C 4.6623819610530415 -3.513895531913512 4.650609198531172 -3.5544924622618055 4.618308553517858 -3.572270668734647 C 4.586007908504554 -3.5900488752074913 4.545410978156266 -3.5782761126856135 4.527632771683427 -3.54597546767231 Z" fill="#2196f3" transform="matrix(1,0,0,1,0,0)" fill-rule="evenodd"></path></g><g clip-path="url(#SvgjsClipPath144552584c4b2-2983-4d59-bfb6-57eed0811155)"><path d=" M 4.499863798290166 -2.792955373533113 C 4.344729868718833 -2.478033496503329 4.175478751556527 -2.1679207712902544 4.03446200957619 -1.8466384031480474 C 3.9930412503806516 -1.7535580454052542 4.127542367318995 -1.6759910806195935 4.174082546190386 -1.7690714383623867 C 4.333249957930555 -2.0832176457443143 4.46526893199575 -2.4111707728580885 4.61171536151109 -2.730901801704584 C 4.645379424228059 -2.805521221828391 4.536165137809852 -2.867419659727348 4.499863798290166 -2.792955373533113 Z" fill="#2196f3" transform="matrix(1,0,0,1,0,0)" fill-rule="evenodd"></path></g><g clip-path="url(#SvgjsClipPath144552584c4b2-2983-4d59-bfb6-57eed0811155)"><path d=" M 3.2721338796627095 -0.37503794723448625 C 3.0732911292205776 -0.7199707872993448 2.982553349425897 -1.1166445834237786 3.01166401191246 -1.5137209902879896 L 3.01166401191246 -1.5149620617245607 C 3.0929913909223146 -1.5405770180152722 3.1696362614559326 -1.579187591893107 3.238624950875309 -1.629295767818625 C 3.248567307466416 -1.6162101112805751 3.262513009827407 -1.6067313917070818 3.278339236845567 -1.6023024640732144 C 3.8394586601050413 -1.4364642933614693 4.736598174815992 -1.8703738943724582 4.712707549662008 -2.48299778224961 C 4.7050169497484395 -2.645876474649558 4.641657342569927 -2.8011814409056113 4.533217593147986 -2.922957606513881 C 4.872805764979614 -3.3950301541994135 4.551213128978261 -4.049850470919962 4.1143559833054235 -4.364617214020174 C 3.8842661203124234 -4.537579170647603 3.594269164985234 -4.61070737916273 3.309676290618969 -4.567532393899463 C 3.22825270612945 -4.553584507121967 3.148919106826283 -4.529398705494724 3.073562449811409 -4.49555025057837 C 2.9413883418166558 -4.904328154998805 2.401677400838027 -5.075751147175115 1.983281192784171 -4.971811414362327 C 1.5055381629198075 -4.854268066988821 1.2004483474190015 -4.386802671904818 1.2851785097132176 -3.902162969968063 C 1.287658846730153 -3.887139125579588 1.296776476706686 -3.8740325324883287 1.3099999384446357 -3.866482166166656 C 0.9595523915430165 -3.7626975672834453 0.7777354260854272 -3.3728460022707116 0.7730814081982814 -3.0298448839885177 C 0.7673414528041532 -2.5734408631896892 1.0251740437516863 -2.103385056588584 1.5307555202246272 -2.0130971095780734 C 1.5441788402969743 -2.010750064945051 1.5579835943128688 -2.01198072131081 1.5707800740540119 -2.0166651899582146 C 1.7538224963303066 -1.7450366794870371 2.03581546956918 -1.5557422848153402 2.356533427332779 -1.4892098294157177 C 2.3856986060921717 -1.482487359134292 2.415639454499442 -1.4770059602894396 2.446355972554569 -1.472765632881158 C 2.4327041867522916 -1.100444201909983 2.412691909837588 -0.7036116100665444 2.213655078197581 -0.37689955438933875 C 2.181076952987605 -0.3233783486872319 2.235373828337565 -0.27327008943569453 2.2850166858003895 -0.27063281263298045 C 2.593112669929035 -0.25372321430970857 2.9030702612125294 -0.25434375002799303 3.2116316471298925 -0.24968973214085288 C 3.277408433268131 -0.2482935267747104 3.300057986985551 -0.32725669692651316 3.2724441475218584 -0.37457254544576823 Z M 2.85063499301743 -1.476488847190871 C 2.8329317916505476 -1.1086946549369991 2.9091705956777387 -0.7424494199044265 3.072166244445277 -0.41227009033159945 C 2.847377180496427 -0.41676897428917137 2.6222778486884497 -0.4214229921763115 2.3968682490213125 -0.4195613850214537 C 2.524858148465201 -0.7515398300042948 2.5883055718610013 -1.1048972228750045 2.5838046341547543 -1.4606651863745954 C 2.67304566951227 -1.4565241288193076 2.7624751274841133 -1.4617235159106965 2.85063499301743 -1.4761785793317275 Z M 3.3470635676456597 -1.7330803667018384 C 3.4014810267564575 -1.8011175289858334 3.4387273900806727 -1.8812504192233548 3.455657318345579 -1.9667120646362486 C 3.4617249095796936 -2.00809821532875 3.4350910811494573 -2.0472375746788996 3.3943659643424566 -2.0567818920239365 C 3.3536408475354564 -2.0663262093689734 3.3123901724360887 -2.043096227211465 3.2994374512672526 -2.003323672015081 C 3.187275620187192 -1.6179709909599183 2.703568027783815 -1.5618125084550978 2.3498626683612036 -1.6527209911838923 C 2.0062410143607288 -1.7408370631804044 1.6193369940098434 -2.0250424221550674 1.6151483779114266 -2.389917424506814 C 1.613907306474853 -2.479895103658181 1.4693224841143855 -2.4761718893484685 1.4677711448186739 -2.3865044780562448 C 1.4669726439582949 -2.3084572726830217 1.4795659119794324 -2.230851258502731 1.5050032879157844 -2.157061396220257 C 1.1519071395852047 -2.271378998278571 0.9167787417838402 -2.605199364073466 0.9280602038400343 -2.9761685443568417 C 0.9167354269813355 -3.3709843951158565 1.1094117675089168 -3.7096417633700507 1.5501472614210439 -3.7493560493403084 C 1.58947351092 -3.7503413475303704 1.6205549930942724 -3.7830203137046636 1.619569694904208 -3.8223465632036193 C 1.6185843967141436 -3.8616728127025755 1.5859054305398477 -3.892754294876845 1.5465791810408915 -3.8917689966867837 C 1.5025136790927491 -3.894874283515202 1.4582515923038977 -3.893731365781217 1.4144050730461388 -3.8883560502362142 C 1.420770291793902 -3.898746350753736 1.42303781753355 -3.9111347840630635 1.420765564158565 -3.9231060504601913 C 1.3549660220120625 -4.309275124179824 1.579752150246863 -4.685957995198992 1.950858201503764 -4.811402931185581 C 2.309838114531808 -4.931476592673786 2.835897269708148 -4.8034911007774435 2.9316149042536574 -4.416276812567423 C 2.8202320369436666 -4.343704377131391 2.7365587345646385 -4.235710617823132 2.6941048580799545 -4.109732167734492 C 2.6677320900528363 -4.023012301104123 2.7946316444421897 -3.9848493544295764 2.8417923590318677 -4.054969890595815 C 2.9621044193113946 -4.260017954015251 3.17231572391087 -4.396074258168986 3.4086517376854704 -4.421861634031991 C 3.6506541483457036 -4.439099742435541 3.889720197244684 -4.36041413380026 4.074176295546437 -4.202812525477283 C 4.409575851279648 -3.932414086234469 4.680284558381602 -3.412715422170541 4.4309843335604935 -3.0216227857212363 C 4.3755705187969856 -3.065732237080601 4.314855229564021 -3.102734688029445 4.250253305609897 -3.131767875716873 C 4.130800179839986 -3.1859096171372667 3.6975111145472788 -3.3042768054001845 3.761116025671519 -3.041169660847222 C 3.779111561501782 -2.965929705005131 3.902443035510995 -2.9873381872859746 3.900736562285703 -3.0622678752689216 C 3.900736562285703 -3.093294661183186 4.195491028471209 -2.993698678398398 4.197973171344357 -2.9921473391026834 C 4.29183663556756 -2.948327195251675 4.374372443489669 -2.883519335783577 4.439206431827758 -2.8027288110960997 C 4.577584165575303 -2.6286091394764766 4.597130762450163 -2.388167615536286 4.488694155361026 -2.1939832714582295 C 4.297258886270006 -1.8632377336121788 3.7294687040389793 -1.6413962143251881 3.34721870157524 -1.7330803667018384 Z" fill="#2196f3" transform="matrix(1,0,0,1,0,0)" fill-rule="evenodd"></path></g></g><g><path d=" M 0.75 0.7004999999999999 Q 0.7545000000000001 0.7004999999999999 0.75825 0.70275 Q 0.762 0.705 0.762 0.7064999999999999 Q 0.747 0.8234999999999999 0.747 0.9195 Q 0.747 0.9315 0.7425 0.93675 Q 0.738 0.942 0.7245 0.942 L 0.0615 0.942 Q 0.057 0.942 0.057 0.9329999999999999 Q 0.057 0.9239999999999999 0.0615 0.9239999999999999 Q 0.1095 0.9239999999999999 0.13125 0.9165 Q 0.153 0.9089999999999999 0.1605 0.88725 Q 0.168 0.8654999999999999 0.168 0.8205 L 0.168 0.1259999999999999 Q 0.168 0.08099999999999996 0.1605 0.05999999999999994 Q 0.153 0.038999999999999924 0.1305 0.030749999999999944 Q 0.108 0.022499999999999964 0.0615 0.022499999999999964 Q 0.057 0.022499999999999964 0.057 0.013499999999999956 Q 0.057 0.0044999999999999485 0.0615 0.0044999999999999485 L 0.6975 0.0044999999999999485 Q 0.7125 0.0044999999999999485 0.7125 0.017999999999999905 L 0.7155 0.21749999999999992 Q 0.7155 0.22049999999999992 0.70725 0.22199999999999998 Q 0.6990000000000001 0.22349999999999992 0.6975 0.21899999999999997 Q 0.6735 0.1319999999999999 0.6165 0.08999999999999997 Q 0.5595 0.04799999999999993 0.4665 0.04799999999999993 L 0.4215 0.04799999999999993 Q 0.3765 0.04799999999999993 0.3555 0.0674999999999999 Q 0.3345 0.08699999999999997 0.3345 0.12749999999999995 L 0.3345 0.4334999999999999 L 0.459 0.4334999999999999 Q 0.546 0.4334999999999999 0.5925 0.40349999999999997 Q 0.639 0.37349999999999994 0.639 0.3194999999999999 Q 0.639 0.31499999999999995 0.64725 0.31499999999999995 Q 0.6555 0.31499999999999995 0.6555 0.3194999999999999 L 0.654 0.45449999999999996 L 0.6555 0.5265 Q 0.6585 0.5774999999999999 0.6585 0.6074999999999999 Q 0.6585 0.6104999999999999 0.6495 0.6104999999999999 Q 0.6405 0.6104999999999999 0.6405 0.6074999999999999 Q 0.6405 0.5459999999999999 0.59325 0.5107499999999999 Q 0.546 0.4754999999999999 0.4575 0.4754999999999999 L 0.3345 0.4754999999999999 L 0.3345 0.8145 Q 0.3345 0.858 0.35100000000000003 0.879 Q 0.3675 0.8999999999999999 0.4035 0.8999999999999999 L 0.453 0.8999999999999999 Q 0.5700000000000001 0.8999999999999999 0.6405 0.852 Q 0.711 0.8039999999999999 0.744 0.7034999999999999 Q 0.744 0.7004999999999999 0.75 0.7004999999999999 M 1.4107529296874999 0.23399999999999999 Q 1.4760029296875001 0.24599999999999989 1.5180029296875 0.26549999999999996 Q 1.5285029296875 0.2699999999999999 1.5315029296875 0.2752499999999999 Q 1.5345029296875001 0.28049999999999997 1.5345029296875001 0.2909999999999999 L 1.5420029296875 0.44549999999999995 Q 1.5420029296875 0.44999999999999996 1.5345029296875001 0.45149999999999996 Q 1.5270029296875 0.45299999999999996 1.5240029296875002 0.44699999999999995 Q 1.4670029296875 0.3494999999999999 1.4077529296875 0.3022499999999999 Q 1.3485029296875 0.2549999999999999 1.2720029296875 0.2549999999999999 Q 1.1655029296875 0.2549999999999999 1.1085029296875 0.3397499999999999 Q 1.0515029296875 0.4245 1.0515029296875 0.5654999999999999 Q 1.0515029296875 0.6584999999999999 1.0777529296875 0.7409999999999999 Q 1.1040029296875 0.8234999999999999 1.1610029296875 0.8759999999999999 Q 1.2180029296875001 0.9285 1.3050029296875 0.9285 Q 1.3815029296875 0.9285 1.4347529296875 0.8819999999999999 Q 1.4880029296875001 0.8354999999999999 1.5390029296874999 0.732 Q 1.5405029296875 0.726 1.5480029296875 0.7274999999999999 Q 1.5555029296875 0.729 1.5555029296875 0.7334999999999999 L 1.5435029296875 0.8925 Q 1.5420029296875 0.9045 1.5390029296874999 0.9089999999999999 Q 1.5360029296875 0.9135 1.5225029296875001 0.9195 Q 1.4070029296875 0.96 1.2825029296875 0.96 Q 1.1385029296875 0.96 1.0470029296875 0.9029999999999999 Q 0.9555029296875 0.846 0.9142529296875 0.7605 Q 0.8730029296875 0.6749999999999999 0.8730029296875 0.588 Q 0.8730029296875 0.48599999999999993 0.9277529296875 0.4019999999999999 Q 0.9825029296875 0.31799999999999995 1.0777529296875 0.2699999999999999 Q 1.1730029296875 0.22199999999999998 1.2900029296875 0.22199999999999998 Q 1.3455029296875 0.22199999999999998 1.4107529296874999 0.23399999999999999 M 1.827010986328125 0.90975 Q 1.743010986328125 0.8594999999999999 1.696510986328125 0.7747499999999999 Q 1.650010986328125 0.69 1.650010986328125 0.591 Q 1.650010986328125 0.4769999999999999 1.709260986328125 0.3929999999999999 Q 1.768510986328125 0.30899999999999994 1.860760986328125 0.26549999999999996 Q 1.953010986328125 0.22199999999999998 2.050510986328125 0.22199999999999998 Q 2.157010986328125 0.22199999999999998 2.238760986328125 0.27374999999999994 Q 2.320510986328125 0.3254999999999999 2.365510986328125 0.40874999999999995 Q 2.410510986328125 0.49199999999999994 2.410510986328125 0.5834999999999999 Q 2.410510986328125 0.6839999999999999 2.358010986328125 0.7702499999999999 Q 2.305510986328125 0.8564999999999999 2.215510986328125 0.90825 Q 2.125510986328125 0.96 2.017510986328125 0.96 Q 1.911010986328125 0.96 1.827010986328125 0.90975 M 2.187760986328125 0.843 Q 2.239510986328125 0.7605 2.239510986328125 0.615 Q 2.239510986328125 0.516 2.209510986328125 0.43499999999999994 Q 2.179510986328125 0.354 2.124760986328125 0.30674999999999997 Q 2.070010986328125 0.25949999999999995 1.998010986328125 0.25949999999999995 Q 1.911010986328125 0.25949999999999995 1.8660109863281251 0.3314999999999999 Q 1.821010986328125 0.40349999999999997 1.821010986328125 0.5445 Q 1.821010986328125 0.651 1.851760986328125 0.7387499999999999 Q 1.882510986328125 0.8264999999999999 1.935010986328125 0.8759999999999999 Q 1.987510986328125 0.9255 2.052010986328125 0.9255 Q 2.136010986328125 0.9255 2.187760986328125 0.843 M 3.520535888671875 0.9329999999999999 Q 3.520535888671875 0.942 3.5175358886718753 0.942 L 3.250535888671875 0.942 Q 3.217535888671875 0.942 3.127535888671875 0.8182499999999999 Q 3.037535888671875 0.6944999999999999 2.910035888671875 0.4724999999999999 Q 2.898035888671875 0.4739999999999999 2.875535888671875 0.4739999999999999 Q 2.817035888671875 0.4739999999999999 2.793035888671875 0.4724999999999999 L 2.793035888671875 0.8205 Q 2.793035888671875 0.867 2.800535888671875 0.8879999999999999 Q 2.808035888671875 0.9089999999999999 2.829785888671875 0.9165 Q 2.851535888671875 0.9239999999999999 2.899535888671875 0.9239999999999999 Q 2.902535888671875 0.9239999999999999 2.902535888671875 0.9329999999999999 Q 2.902535888671875 0.942 2.899535888671875 0.942 Q 2.850035888671875 0.942 2.821535888671875 0.9405 L 2.707535888671875 0.939 L 2.598035888671875 0.9405 Q 2.568035888671875 0.942 2.517035888671875 0.942 Q 2.512535888671875 0.942 2.512535888671875 0.9329999999999999 Q 2.512535888671875 0.9239999999999999 2.517035888671875 0.9239999999999999 Q 2.565035888671875 0.9239999999999999 2.586785888671875 0.9165 Q 2.608535888671875 0.9089999999999999 2.616785888671875 0.88725 Q 2.625035888671875 0.8654999999999999 2.625035888671875 0.8205 L 2.625035888671875 0.1259999999999999 Q 2.625035888671875 0.08099999999999996 2.617535888671875 0.05999999999999994 Q 2.610035888671875 0.038999999999999924 2.587535888671875 0.030749999999999944 Q 2.565035888671875 0.022499999999999964 2.518535888671875 0.022499999999999964 Q 2.515535888671875 0.022499999999999964 2.515535888671875 0.013499999999999956 Q 2.515535888671875 0.0044999999999999485 2.518535888671875 0.0044999999999999485 L 2.598035888671875 0.005999999999999894 Q 2.667035888671875 0.008999999999999897 2.707535888671875 0.008999999999999897 Q 2.751035888671875 0.008999999999999897 2.803535888671875 0.0044999999999999485 Q 2.820035888671875 0.0029999999999998916 2.846285888671875 0.0014999999999999458 Q 2.872535888671875 -1.1102230246251565e-16 2.908535888671875 -1.1102230246251565e-16 Q 3.046535888671875 -1.1102230246251565e-16 3.122285888671875 0.050249999999999906 Q 3.198035888671875 0.10049999999999992 3.198035888671875 0.1904999999999999 Q 3.198035888671875 0.25949999999999995 3.156035888671875 0.3224999999999999 Q 3.114035888671875 0.38549999999999995 3.046535888671875 0.4245 Q 3.166535888671875 0.6134999999999999 3.248285888671875 0.72 Q 3.3300358886718753 0.8264999999999999 3.393785888671875 0.87525 Q 3.457535888671875 0.9239999999999999 3.5175358886718753 0.9239999999999999 Q 3.520535888671875 0.9239999999999999 3.520535888671875 0.9329999999999999 M 2.880035888671875 0.43499999999999994 Q 2.934035888671875 0.43499999999999994 2.965535888671875 0.4185 Q 2.997035888671875 0.4019999999999999 3.0112858886718747 0.36149999999999993 Q 3.0255358886718753 0.32099999999999995 3.0255358886718753 0.24749999999999994 Q 3.0255358886718753 0.12449999999999994 2.989535888671875 0.07799999999999996 Q 2.953535888671875 0.03149999999999997 2.886035888671875 0.03149999999999997 Q 2.835035888671875 0.03149999999999997 2.814035888671875 0.05399999999999994 Q 2.793035888671875 0.0764999999999999 2.793035888671875 0.1289999999999999 L 2.793035888671875 0.42899999999999994 Q 2.829035888671875 0.43499999999999994 2.880035888671875 0.43499999999999994 M 3.813032958984375 0.88725 Q 3.820532958984375 0.9089999999999999 3.840032958984375 0.9165 Q 3.859532958984375 0.9239999999999999 3.903032958984375 0.9239999999999999 Q 3.906032958984375 0.9239999999999999 3.906032958984375 0.9329999999999999 Q 3.906032958984375 0.942 3.903032958984375 0.942 Q 3.856532958984375 0.942 3.831032958984375 0.9405 L 3.729032958984375 0.939 L 3.631532958984375 0.9405 Q 3.604532958984375 0.942 3.556532958984375 0.942 Q 3.553532958984375 0.942 3.553532958984375 0.9329999999999999 Q 3.553532958984375 0.9239999999999999 3.556532958984375 0.9239999999999999 Q 3.600032958984375 0.9239999999999999 3.620282958984375 0.9165 Q 3.640532958984375 0.9089999999999999 3.648032958984375 0.88725 Q 3.655532958984375 0.8654999999999999 3.655532958984375 0.8205 L 3.655532958984375 0.36149999999999993 Q 3.655532958984375 0.3164999999999999 3.648032958984375 0.2955 Q 3.640532958984375 0.27449999999999997 3.620282958984375 0.26625 Q 3.600032958984375 0.2579999999999999 3.556532958984375 0.2579999999999999 Q 3.553532958984375 0.2579999999999999 3.553532958984375 0.2489999999999999 Q 3.553532958984375 0.23999999999999988 3.556532958984375 0.23999999999999988 L 3.631532958984375 0.24149999999999994 Q 3.691532958984375 0.24449999999999994 3.729032958984375 0.24449999999999994 Q 3.769532958984375 0.24449999999999994 3.832532958984375 0.24149999999999994 L 3.903032958984375 0.23999999999999988 Q 3.906032958984375 0.23999999999999988 3.906032958984375 0.2489999999999999 Q 3.906032958984375 0.2579999999999999 3.903032958984375 0.2579999999999999 Q 3.861032958984375 0.2579999999999999 3.840782958984375 0.2669999999999999 Q 3.820532958984375 0.2759999999999999 3.813032958984375 0.29774999999999996 Q 3.805532958984375 0.3194999999999999 3.805532958984375 0.36449999999999994 L 3.805532958984375 0.8205 Q 3.805532958984375 0.8654999999999999 3.813032958984375 0.88725 M 4.281000732421875 0.9434999999999999 Q 4.263000732421875 0.942 4.236000732421875 0.9405 Q 4.209000732421875 0.939 4.174500732421875 0.939 L 4.077000732421875 0.9405 Q 4.050000732421875 0.942 4.002000732421875 0.942 Q 3.999000732421875 0.942 3.999000732421875 0.9329999999999999 Q 3.999000732421875 0.9239999999999999 4.002000732421875 0.9239999999999999 Q 4.047000732421875 0.9239999999999999 4.067250732421875 0.9165 Q 4.087500732421875 0.9089999999999999 4.094250732421875 0.88725 Q 4.101000732421875 0.8654999999999999 4.101000732421875 0.8205 L 4.101000732421875 0.36149999999999993 Q 4.101000732421875 0.3164999999999999 4.094250732421875 0.2955 Q 4.087500732421875 0.27449999999999997 4.067250732421875 0.26625 Q 4.047000732421875 0.2579999999999999 4.005000732421875 0.2579999999999999 Q 4.000500732421875 0.2579999999999999 4.000500732421875 0.2489999999999999 Q 4.000500732421875 0.23999999999999988 4.005000732421875 0.23999999999999988 L 4.077000732421875 0.24149999999999994 Q 4.137000732421875 0.24449999999999994 4.174500732421875 0.24449999999999994 Q 4.221000732421875 0.24449999999999994 4.267500732421875 0.23999999999999988 Q 4.327500732421875 0.237 4.357500732421875 0.237 Q 4.483500732421875 0.237 4.575000732421875 0.2819999999999999 Q 4.666500732421875 0.32699999999999996 4.714500732421875 0.4065 Q 4.762500732421875 0.48599999999999993 4.762500732421875 0.5865 Q 4.762500732421875 0.69 4.713000732421875 0.7725 Q 4.663500732421875 0.855 4.575000732421875 0.9015 Q 4.486500732421875 0.948 4.374000732421875 0.948 Q 4.332000732421875 0.948 4.281000732421875 0.9434999999999999 M 4.528500732421875 0.834 Q 4.590000732421875 0.7529999999999999 4.590000732421875 0.603 Q 4.590000732421875 0.45749999999999996 4.528500732421875 0.36224999999999996 Q 4.467000732421875 0.2669999999999999 4.3440007324218755 0.2669999999999999 Q 4.293000732421875 0.2669999999999999 4.271250732421875 0.2879999999999999 Q 4.249500732421875 0.30899999999999994 4.249500732421875 0.36449999999999994 L 4.249500732421875 0.8039999999999999 Q 4.249500732421875 0.8654999999999999 4.271250732421875 0.89025 Q 4.293000732421875 0.9149999999999999 4.357500732421875 0.9149999999999999 Q 4.467000732421875 0.9149999999999999 4.528500732421875 0.834 M 5.011525634765625 0.5385 Q 5.011525634765625 0.705 5.085025634765625 0.8039999999999999 Q 5.158525634765625 0.9029999999999999 5.292025634765625 0.9029999999999999 Q 5.329525634765625 0.9029999999999999 5.368525634765625 0.8925 Q 5.407525634765625 0.8819999999999999 5.437525634765625 0.861 L 5.439025634765625 0.861 Q 5.443525634765625 0.861 5.447275634765625 0.86625 Q 5.4510256347656245 0.8714999999999999 5.448025634765625 0.8759999999999999 Q 5.343025634765625 0.96 5.217025634765625 0.96 Q 5.100025634765625 0.96 5.018275634765625 0.90975 Q 4.936525634765625 0.8594999999999999 4.894525634765625 0.7785 Q 4.852525634765625 0.6975 4.852525634765625 0.603 Q 4.852525634765625 0.49949999999999994 4.903525634765625 0.4132499999999999 Q 4.954525634765625 0.32699999999999996 5.041525634765625 0.27674999999999994 Q 5.128525634765625 0.22649999999999992 5.230525634765625 0.22649999999999992 Q 5.341525634765625 0.22649999999999992 5.400025634765625 0.2849999999999999 Q 5.458525634765625 0.3434999999999999 5.458525634765625 0.43799999999999994 Q 5.458525634765625 0.45749999999999996 5.454775634765625 0.4649999999999999 Q 5.4510256347656245 0.4724999999999999 5.440525634765625 0.4724999999999999 L 5.014525634765625 0.4739999999999999 Q 5.011525634765625 0.5129999999999999 5.011525634765625 0.5385 M 5.075275634765625 0.3104999999999999 Q 5.034025634765625 0.35849999999999993 5.019025634765625 0.44399999999999995 L 5.298025634765625 0.4394999999999999 Q 5.295025634765625 0.26249999999999996 5.179525634765625 0.26249999999999996 Q 5.116525634765625 0.26249999999999996 5.075275634765625 0.3104999999999999" fill="#2196f3" fill-rule="nonzero"></path></g><g></g></g><defs><clipPath id="SvgjsClipPath14457"><path d=" M 0.7732365421278615 -5.001907396699167 h 3.940556945041152 v 4.751907396699167 h -3.940556945041152 Z"></path></clipPath><clipPath id="SvgjsClipPath144552584c4b2-2983-4d59-bfb6-57eed0811155"><path d=" M 0.7732365421278615 -5.001907396699167 L 4.7137934871690135 -5.001907396699167 L 4.7137934871690135 -0.25 L 0.7732365421278615 -0.25 Z"></path></clipPath></defs></svg>